<?xml version="1.0" encoding="UTF-8" standalone="no"?>
<svg xmlns:rdf="http://www.w3.org/1999/02/22-rdf-syntax-ns#" xmlns="http://www.w3.org/2000/svg" version="1.1" xml:space="preserve" height="44" width="74" enable-background="new 0 0 74 44" y="0px" x="0px" xmlns:cc="http://creativecommons.org/ns#" xmlns:dc="http://purl.org/dc/elements/1.1/" viewBox="0 0 74 44">
  <metadata>
    <rdf:RDF>
      <cc:Work rdf:about="">
        <dc:format>image/svg+xml</dc:format>
        <dc:type rdf:resource="http://purl.org/dc/dcmitype/StillImage"/>
        <dc:title>SummaryTables module icon</dc:title>
        <cc:license rdf:resource="http://creativecommons.org/publicdomain/zero/1.0/"/>
      </cc:Work>
      <cc:License rdf:about="http://creativecommons.org/publicdomain/zero/1.0/">
        <cc:permits rdf:resource="http://creativecommons.org/ns#Reproduction"/>
        <cc:permits rdf:resource="http://creativecommons.org/ns#Distribution"/>
        <cc:permits rdf:resource="http://creativecommons.org/ns#DerivativeWorks"/>
      </cc:License>
    </rdf:RDF>
  </metadata>

  <g stroke="none">
    <!-- Header Row -->
    <rect x="9" y="4" width="13" height="8" fill="#3e6da9"/>
    <rect x="23" y="4" width="13" height="8" fill="#3e6da9"/>
    <rect x="37" y="4" width="13" height="8" fill="#3e6da9"/>
    <rect x="51" y="4" width="13" height="8" fill="#3e6da9"/>

    <!-- Row 1 -->
    <rect x="9" y="13" width="13" height="8" fill="#6b9de8"/>
    <rect x="23" y="13" width="13" height="8" fill="#b0cbf3"/>
    <rect x="37" y="13" width="13" height="8" fill="#b0cbf3"/>
    <rect x="51" y="13" width="13" height="8" fill="#e6ac40"/>

    <!-- Row 2 -->
    <rect x="9" y="22" width="13" height="8" fill="#6b9de8"/>
    <rect x="23" y="22" width="13" height="8" fill="#b0cbf3"/>
    <rect x="37" y="22" width="13" height="8" fill="#b0cbf3"/>
    <rect x="51" y="22" width="13" height="8" fill="#e6ac40"/>

    <!-- Row 3 -->
    <rect x="9" y="31" width="13" height="8" fill="#6b9de8"/>
    <rect x="23" y="31" width="13" height="8" fill="#b0cbf3"/>
    <rect x="37" y="31" width="13" height="8" fill="#b0cbf3"/>
    <rect x="51" y="31" width="13" height="8" fill="#e6ac40"/>
  </g>
</svg>
